<?xml version="1.0" standalone="no"?>
<!DOCTYPE svg PUBLIC "-//W3C//DTD SVG 20010904//EN"
 "http://www.w3.org/TR/2001/REC-SVG-20010904/DTD/svg10.dtd">
<svg version="1.0" xmlns="http://www.w3.org/2000/svg"
 width="148.000000pt" height="148.000000pt" viewBox="0 0 148.000000 148.000000"
 preserveAspectRatio="xMidYMid meet">
<metadata>
Created by potrace 1.11, written by Peter Selinger 2001-2013
</metadata>
<g transform="translate(0.000000,148.000000) scale(0.100000,-0.100000)"
fill="#000000" stroke="none">
<path d="M85 1168 c-26 -46 -56 -98 -67 -115 l-20 -33 355 0 354 0 -1 115 0
115 -287 0 -287 0 -47 -82z"/>
<path d="M855 1168 c-26 -46 -56 -98 -67 -115 l-20 -33 354 0 353 0 1 115 1
115 -288 0 -287 0 -47 -82z"/>
<path d="M0 580 l0 -350 355 0 355 0 0 115 0 115 -240 0 -240 0 0 120 0 120
240 0 240 0 0 115 0 115 -355 0 -355 0 0 -350z"/>
<path d="M770 580 l0 -350 115 0 115 0 0 235 0 235 240 0 239 0 0 115 -1 115
-354 0 -354 0 0 -350z"/>
</g>
</svg>
